<svg xmlns="http://www.w3.org/2000/svg" xmlns:xlink="http://www.w3.org/1999/xlink" viewBox="0,0,256,256" width="50px" height="50px" fill-rule="nonzero"><g transform="translate(-10.24,-10.24) scale(1.08,1.08)"><g fill="#503115" fill-rule="nonzero" stroke="none" stroke-width="1" stroke-linecap="butt" stroke-linejoin="miter" stroke-miterlimit="10" stroke-dasharray="" stroke-dashoffset="0" font-family="none" font-weight="none" font-size="none" text-anchor="none" style="mix-blend-mode: normal"><g transform="scale(5.12,5.12)"><path d="M25,2c-12.682,0 -23,10.317 -23,23c0,12.683 10.318,23 23,23c12.682,0 23,-10.317 23,-23c0,-12.683 -10.318,-23 -23,-23zM18,35h-4v-15h4zM16,17c-1.105,0 -2,-0.895 -2,-2c0,-1.105 0.895,-2 2,-2c1.105,0 2,0.895 2,2c0,1.105 -0.895,2 -2,2zM37,35h-4v-5v-2.5c0,-1.925 -1.575,-3.5 -3.5,-3.5c-1.925,0 -3.5,1.575 -3.5,3.5v7.5h-4v-15h4v1.816c1.168,-1.122 2.752,-1.816 4.5,-1.816c3.59,0 6.5,2.91 6.5,6.5z"></path></g></g></g></svg>